<svg width="32" height="33" viewBox="0 0 32 33" fill="none" xmlns="http://www.w3.org/2000/svg">
<path d="M22.0205 13.1834H28.0205V7.18335" stroke="#D0AD6A" stroke-width="2" stroke-linecap="round" stroke-linejoin="round"/>
<path d="M8.22168 8.94058C9.24312 7.91913 10.4558 7.10888 11.7903 6.55608C13.1249 6.00327 14.5553 5.71875 15.9999 5.71875C17.4444 5.71875 18.8748 6.00327 20.2094 6.55608C21.544 7.10888 22.7566 7.91913 23.778 8.94058L28.0207 13.1832" stroke="#D0AD6A" stroke-width="2" stroke-linecap="round" stroke-linejoin="round"/>
<path d="M9.97949 20.2542H3.97949V26.2542" stroke="#D0AD6A" stroke-width="2" stroke-linecap="round" stroke-linejoin="round"/>
<path d="M23.7785 24.497C22.757 25.5185 21.5444 26.3287 20.2098 26.8815C18.8752 27.4343 17.4448 27.7189 16.0003 27.7189C14.5558 27.7189 13.1254 27.4343 11.7908 26.8815C10.4562 26.3287 9.24358 25.5185 8.22213 24.497L3.97949 20.2544" stroke="#D0AD6A" stroke-width="2" stroke-linecap="round" stroke-linejoin="round"/>
</svg>
