<svg width="190" height="48" viewBox="0 0 190 48" fill="none" xmlns="http://www.w3.org/2000/svg">
<path d="M54.1181 38.2188H53.2349V9.77968H54.1181V38.2188Z" fill="url(#paint0_linear_459_1873)"/>
<path d="M41.664 24C41.664 33.8555 33.7093 41.8447 23.8967 41.8447C14.0843 41.8447 6.12976 33.8555 6.12976 24C6.12976 14.1444 14.0843 6.15493 23.8967 6.15493C33.7093 6.15493 41.664 14.1444 41.664 24" fill="url(#paint1_radial_459_1873)"/>
<path d="M16.1827 17.1491H21.8632V22.6008L16.1827 17.1491Z" fill="#192640"/>
<path d="M15.9315 18.4172H16.6888L18.0773 19.8115L15.9315 18.4172Z" fill="#192640"/>
<path d="M22.1158 17.5295V22.8545H27.0389L22.1158 17.5295Z" fill="#192640"/>
<path d="M26.4078 21.7135L29.0584 18.7974H30.0685V22.8545H27.6702L26.4078 21.7135Z" fill="#192640"/>
<path d="M30.5751 19.05V20.3181H31.5849L30.5751 19.05Z" fill="#192640"/>
<path d="M22.1158 24.6297V32.3638L24.5143 30.9689L22.1158 24.6297Z" fill="#192640"/>
<path d="M22.1158 23.4881H29.816L24.325 29.0034L22.1158 23.4881Z" fill="#192640"/>
<path d="M42.5331 9.80598C38.145 3.98338 31.1731 0.507247 23.8828 0.507247C20.6358 0.507247 17.47 1.17892 14.4732 2.5036L14.4494 2.51439L14.2477 2.04941L14.2707 2.03921C17.3311 0.686244 20.5652 -9.87629e-07 23.8828 -9.87629e-07C31.3301 -9.87629e-07 38.4527 3.55134 42.9356 9.49988L42.5331 9.80598ZM2.03767 33.6827L2.03099 33.6672C0.683344 30.5928 0 27.3446 0 24.0125C0 16.5291 3.53825 9.37336 9.465 4.87136L9.76953 5.27541C3.96832 9.68237 0.50478 16.6871 0.50478 24.0125C0.50478 27.2735 1.17381 30.4534 2.49302 33.4634L2.49981 33.4788L2.03767 33.6827ZM38.3122 43.1385L38.008 42.7341C43.8177 38.3272 47.286 31.319 47.286 23.9871C47.286 20.7259 46.6169 17.5459 45.2977 14.5362L45.2844 14.5056L45.7467 14.3019L45.7598 14.3325C47.1075 17.4066 47.791 20.655 47.791 23.9871C47.791 31.477 44.2476 38.6365 38.3122 43.1385V43.1385ZM23.9081 48C16.454 48 9.32756 44.4436 4.84497 38.4867L5.24793 38.1811C9.63563 44.0119 16.6115 47.4927 23.9081 47.4927C27.1548 47.4927 30.3209 46.8207 33.3175 45.4957L33.5306 45.9558L33.5189 45.9607C30.46 47.3137 27.2257 48 23.9081 48Z" fill="url(#paint2_radial_459_1873)"/>
<path d="M5.82332 17.3848L5.34995 17.2082L5.35323 17.1991C6.77059 13.3026 9.31136 10.0073 12.7019 7.66749C16.0188 5.37816 19.89 4.16833 23.8968 4.16833C24.6602 4.16833 25.432 4.2141 26.191 4.3036L26.1318 4.80735C25.3925 4.71989 24.6405 4.67558 23.8968 4.67558C15.8515 4.67558 8.59037 9.77724 5.82852 17.3706L5.82332 17.3848ZM43.5061 26.2988L43.0045 26.2396C43.0913 25.4997 43.1351 24.7467 43.1351 24.0013C43.1351 15.9205 38.0557 8.62777 30.4955 5.85392L30.4763 5.84664L30.6496 5.37057L30.6702 5.37815C34.546 6.80021 37.8267 9.3522 40.1563 12.7575C42.4356 16.0887 43.6402 19.9768 43.6402 24.0013C43.6402 24.7662 43.5949 25.5391 43.5061 26.2988V26.2988ZM17.1306 42.6252L17.1169 42.62C13.2445 41.1991 9.96374 38.6474 7.6341 35.2418C5.35494 31.9106 4.15027 28.0223 4.15027 23.9981C4.15027 23.229 4.19584 22.4515 4.28588 21.6869L4.78735 21.7466C4.69972 22.4912 4.65525 23.2491 4.65525 23.9981C4.65525 32.0785 9.7347 39.3715 17.2949 42.1454L17.1306 42.6252ZM23.8936 43.8311C23.1256 43.8311 22.3493 43.7849 21.5859 43.6943L21.6454 43.1903C22.3891 43.2789 23.1454 43.3237 23.8936 43.3237C31.9389 43.3237 39.2002 38.2221 41.9619 30.6288L41.9709 30.6037L42.4458 30.7766L42.4356 30.8043C41.0198 34.697 38.4789 37.992 35.0884 40.3318C31.7717 42.6212 27.9006 43.8311 23.8936 43.8311Z" fill="#192640"/>
<path d="M23.8961 9.70563C16.0482 9.70563 9.66341 16.1183 9.66341 24.0005C9.66341 31.8827 16.0482 38.2954 23.8961 38.2954C31.744 38.2954 38.129 31.8827 38.129 24.0005C38.129 16.1183 31.744 9.70563 23.8961 9.70563V9.70563ZM23.8961 38.4221C15.9787 38.4221 9.53735 31.9524 9.53735 24.0005C9.53735 16.0483 15.9787 9.57852 23.8961 9.57852C31.8137 9.57852 38.2553 16.0483 38.2553 24.0005C38.2553 31.9524 31.8137 38.4221 23.8961 38.4221Z" fill="#192640"/>
<path d="M22.4753 9.04216L22.4518 8.78941C22.9284 8.74451 23.4137 8.72177 23.8941 8.72177L23.9765 8.72207L23.975 8.97569L23.8941 8.9754C23.4212 8.9754 22.9441 8.99785 22.4753 9.04216ZM26.9568 9.29054C26.4698 9.1885 25.9711 9.11038 25.4739 9.0579L25.5003 8.80602C26.0057 8.85908 26.513 8.93867 27.0082 9.04216L26.9568 9.29054ZM19.5338 9.62346L19.4603 9.38091C19.9444 9.23311 20.4427 9.10805 20.9411 9.00951L20.9901 9.25847C20.4998 9.35496 20.0099 9.47828 19.5338 9.62346ZM29.8155 10.1983C29.3569 9.99952 28.8838 9.82257 28.409 9.67156L28.485 9.42989C28.968 9.58323 29.4492 9.76368 29.9154 9.96571L29.8155 10.1983ZM16.7684 10.7863L16.6479 10.5633C17.0939 10.3202 17.5571 10.0972 18.0244 9.90041L18.1218 10.1345C17.6623 10.3281 17.2068 10.547 16.7684 10.7863V10.7863ZM32.4354 11.6638C32.0258 11.377 31.5974 11.1082 31.1623 10.8648L31.2851 10.6432C31.7277 10.8907 32.1631 11.1645 32.5796 11.4557L32.4354 11.6638ZM14.2895 12.4807L14.1274 12.2865C14.5166 11.9589 14.926 11.6478 15.3446 11.3612L15.4866 11.5711C15.0749 11.8524 14.6721 12.1585 14.2895 12.4807V12.4807ZM34.7127 13.6235C34.3684 13.262 34.0019 12.913 33.6228 12.5868L33.7871 12.3938C34.1725 12.7259 34.5455 13.0806 34.8953 13.4488L34.7127 13.6235ZM12.195 14.6365L11.9977 14.4782C12.3133 14.0809 12.6532 13.694 13.0079 13.329L13.1886 13.5063C12.8398 13.8651 12.5055 14.2456 12.195 14.6365V14.6365ZM36.5572 15.9982C36.2914 15.5749 36.0008 15.1598 35.6943 14.7648L35.8931 14.6088C36.2052 15.0102 36.5004 15.4324 36.7709 15.8632L36.5572 15.9982ZM10.5684 17.1669L10.3435 17.0515C10.5741 16.5982 10.8306 16.1515 11.1062 15.7233L11.3183 15.8606C11.0474 16.2819 10.7951 16.7215 10.5684 17.1669ZM37.8933 18.6939C37.7174 18.2254 37.5154 17.761 37.2927 17.3121L37.5189 17.1993C37.745 17.6552 37.9505 18.1281 38.1295 18.6041L37.8933 18.6939ZM9.47894 19.9725L9.23562 19.9046C9.37146 19.4134 9.53359 18.9239 9.71785 18.4499L9.95286 18.542C9.77192 19.0082 9.6124 19.4892 9.47894 19.9725ZM38.6633 21.6039C38.5847 21.1095 38.4796 20.6136 38.3516 20.1294L38.5957 20.0644C38.7257 20.5565 38.8325 21.0611 38.9127 21.564L38.6633 21.6039ZM8.97236 22.9403L8.7203 22.9228C8.7558 22.4135 8.81702 21.9013 8.90252 21.4007L9.15115 21.4436C9.06727 21.936 9.00704 22.4391 8.97236 22.9403V22.9403ZM39.0296 25.5299L38.7786 25.5051C38.8279 25.0086 38.8526 24.502 38.8526 23.9994C38.8526 23.7011 38.8439 23.3991 38.8264 23.1026L39.0784 23.0878C39.0961 23.3892 39.1051 23.6962 39.1051 23.9994C39.1051 24.5104 39.0798 25.0255 39.0296 25.5299ZM8.81034 25.9832C8.74526 25.4797 8.70477 24.9655 8.68994 24.455L8.94232 24.4477C8.95695 24.95 8.99674 25.4555 9.06068 25.9502L8.81034 25.9832ZM38.4244 28.5317L38.1832 28.4562C38.331 27.9784 38.4561 27.4872 38.5551 26.9956L38.8026 27.0461C38.7019 27.5458 38.5745 28.0454 38.4244 28.5317V28.5317ZM9.5048 28.9649C9.33994 28.4833 9.19789 27.9877 9.08245 27.4915L9.32827 27.4338C9.44176 27.9218 9.58143 28.409 9.74345 28.8824L9.5048 28.9649ZM37.2315 31.3504L37.0103 31.228C37.2507 30.7892 37.4715 30.3333 37.6669 29.8721L37.8991 29.9709C37.7006 30.4403 37.4759 30.9041 37.2315 31.3504ZM10.7809 31.746C10.5234 31.307 10.2853 30.8502 10.0729 30.3878L10.3023 30.2817C10.5109 30.7365 10.7452 31.1857 10.9984 31.6172L10.7809 31.746ZM35.5025 33.8725L35.3097 33.7086C35.6325 33.3261 35.9396 32.9232 36.2223 32.511L36.4298 32.6546C36.1428 33.0739 35.8304 33.4834 35.5025 33.8725ZM12.5842 34.2155C12.2443 33.836 11.9202 33.436 11.621 33.0261L11.8247 32.8763C12.1189 33.2791 12.4375 33.6727 12.7717 34.0459L12.5842 34.2155ZM33.3084 35.9997L33.1523 35.8005C33.5433 35.4906 33.9238 35.1569 34.2828 34.8087L34.4581 34.9913C34.093 35.3452 33.7064 35.6845 33.3084 35.9997ZM14.8397 36.2763C14.4319 35.9726 14.0353 35.6448 13.6606 35.3023L13.8304 35.1152C14.199 35.4516 14.5891 35.7739 14.99 36.0728L14.8397 36.2763ZM30.738 37.6464L30.6245 37.4203C31.0691 37.1949 31.508 36.9439 31.9289 36.6745L32.0647 36.8879C31.6366 37.1622 31.1905 37.4173 30.738 37.6464ZM17.4581 37.8458C16.9985 37.6298 16.5447 37.3882 16.1095 37.1269L16.239 36.9095C16.6669 37.166 17.1131 37.4037 17.5651 37.6161L17.4581 37.8458ZM27.8914 38.7438L27.8253 38.4991C28.3065 38.368 28.7863 38.2102 29.2519 38.031L29.3424 38.2674C28.869 38.4499 28.3805 38.6103 27.8914 38.7438V38.7438ZM20.3366 38.8568C19.8437 38.7382 19.351 38.5927 18.8719 38.4242L18.9553 38.185C19.4262 38.3508 19.9108 38.4937 20.3955 38.6099L20.3366 38.8568ZM24.8838 39.2451L24.8676 38.9921C25.3668 38.9598 25.8684 38.902 26.3589 38.8204L26.4001 39.0702C25.9012 39.1533 25.3912 39.2126 24.8838 39.2451V39.2451ZM23.3577 39.2673C22.8497 39.2498 22.3379 39.2064 21.8371 39.1385L21.871 38.8869C22.3634 38.9539 22.8666 38.9965 23.3664 39.014L23.3577 39.2673Z" fill="#192640"/>
<path d="M23.8939 7.15321C14.6453 7.15321 7.12083 14.7107 7.12083 23.9998C7.12083 33.2889 14.6453 40.8461 23.8939 40.8461C33.1429 40.8461 40.6671 33.2889 40.6671 23.9998C40.6671 14.7107 33.1429 7.15321 23.8939 7.15321V7.15321ZM23.8939 40.9731C14.5756 40.9731 6.99463 33.3588 6.99463 23.9998C6.99463 14.6404 14.5756 7.0264 23.8939 7.0264C33.2122 7.0264 40.7934 14.6404 40.7934 23.9998C40.7934 33.3588 33.2122 40.9731 23.8939 40.9731Z" fill="#192640"/>
<path d="M24.0836 8.46094H23.708V7.4546H24.0836V8.46094Z" fill="#192640"/>
<path d="M13.8066 12.218L13.1622 11.4469L13.4502 11.2041L14.0944 11.9755L13.8066 12.218Z" fill="#192640"/>
<path d="M8.62785 21.4875L7.64087 21.3129L7.70618 20.9412L8.69315 21.1159L8.62785 21.4875Z" fill="#192640"/>
<path d="M9.7235 32.4358L9.53564 32.1087L10.4033 31.6056L10.5913 31.9324L9.7235 32.4358Z" fill="#192640"/>
<path d="M18.4367 39.6123L18.0837 39.4832L18.4264 38.5374L18.7794 38.6666L18.4367 39.6123Z" fill="#192640"/>
<path d="M29.3527 39.6123L29.0099 38.6666L29.3628 38.5374L29.7056 39.4832L29.3527 39.6123Z" fill="#192640"/>
<path d="M38.0673 32.4358L37.1995 31.9324L37.3873 31.6056L38.2551 32.1087L38.0673 32.4358Z" fill="#192640"/>
<path d="M39.1631 21.4875L39.0978 21.1159L40.0846 20.9412L40.1499 21.3129L39.1631 21.4875Z" fill="#192640"/>
<path d="M33.9832 12.218L33.6949 11.9755L34.339 11.2041L34.627 11.4469L33.9832 12.218Z" fill="#192640"/>
<path d="M23.2966 8.47266L23.2571 7.4669L23.3994 7.46223L23.4389 8.46857L23.2966 8.47266Z" fill="#192640"/>
<path d="M22.7539 8.50342L22.684 7.49941L22.8091 7.49066L22.8787 8.49467L22.7539 8.50342Z" fill="#192640"/>
<path d="M22.2164 8.55225L22.1117 7.55115L22.2362 7.53803L22.341 8.53913L22.2164 8.55225Z" fill="#192640"/>
<path d="M21.6794 8.62158L21.5399 7.62487L21.6639 7.60708L21.8034 8.60409L21.6794 8.62158Z" fill="#192640"/>
<path d="M21.1479 8.7085L20.9739 7.71732L21.0971 7.69516L21.2712 8.68663L21.1479 8.7085Z" fill="#192640"/>
<path d="M20.6177 8.81396L20.4093 7.82949L20.5318 7.80325L20.7402 8.78802L20.6177 8.81396Z" fill="#192640"/>
<path d="M20.0917 8.93848L19.8491 7.96158L19.9707 7.93126L20.2131 8.90816L20.0917 8.93848Z" fill="#192640"/>
<path d="M19.5704 9.07983L19.2942 8.11227L19.4145 8.07758L19.6907 9.04514L19.5704 9.07983Z" fill="#192640"/>
<path d="M19.0561 9.24121L18.7465 8.28385L18.8655 8.24508L19.1752 9.20215L19.0561 9.24121Z" fill="#192640"/>
<path d="M18.5445 9.41919L18.2018 8.4732L18.3195 8.43034L18.6621 9.37604L18.5445 9.41919Z" fill="#192640"/>
<path d="M18.0408 9.61621L17.6653 8.68304L17.7815 8.63611L18.1569 9.56928L18.0408 9.61621Z" fill="#192640"/>
<path d="M17.5452 9.82959L17.1376 8.90983L17.252 8.85882L17.6596 9.77828L17.5452 9.82959Z" fill="#192640"/>
<path d="M17.0575 10.061L16.6182 9.15644L16.7308 9.10134L17.1702 10.0059L17.0575 10.061Z" fill="#192640"/>
<path d="M16.5782 10.3096L16.1077 9.42101L16.2183 9.36183L16.6889 10.2504L16.5782 10.3096Z" fill="#192640"/>
<path d="M16.1054 10.5735L15.6041 9.70183L15.7126 9.63886L16.2138 10.5105L16.1054 10.5735Z" fill="#192640"/>
<path d="M15.6425 10.855L15.1115 10.0014L15.2178 9.93493L15.7488 10.7882L15.6425 10.855Z" fill="#192640"/>
<path d="M15.1914 11.1533L14.631 10.3187L14.7349 10.2484L15.2952 11.0828L15.1914 11.1533" fill="#192640"/>
<path d="M14.7499 11.4653L14.1609 10.6511L14.2622 10.5771L14.8513 11.3913L14.7499 11.4653Z" fill="#192640"/>
<path d="M14.321 11.7937L13.7041 11.0005L13.8027 10.9232L14.4197 11.7162L14.321 11.7937Z" fill="#192640"/>
<path d="M13.9018 12.1377L13.2577 11.3666L13.3535 11.2856L13.9977 12.0567L13.9018 12.1377" fill="#192640"/>
<path d="M13.4971 12.4949L12.8264 11.7468L12.9197 11.6629L13.5904 12.4106L13.4971 12.4949Z" fill="#192640"/>
<path d="M13.1033 12.8655L12.4071 12.1413L12.4973 12.0539L13.1934 12.7783L13.1033 12.8655Z" fill="#192640"/>
<path d="M12.7234 13.251L12.0026 12.5516L12.0896 12.4612L12.8104 13.1606L12.7234 13.251Z" fill="#192640"/>
<path d="M12.3545 13.6494L11.6096 12.976L11.6935 12.8821L12.4383 13.5558L12.3545 13.6494Z" fill="#192640"/>
<path d="M12.005 14.0596L11.2372 13.413L11.3179 13.3168L12.0856 13.9634L12.005 14.0596Z" fill="#192640"/>
<path d="M11.6651 14.4827L10.8754 13.8626L10.9526 13.7635L11.7423 14.3835L11.6651 14.4827Z" fill="#192640"/>
<path d="M11.3423 14.917L10.5315 14.3252L10.6052 14.2238L11.416 14.8153L11.3423 14.917Z" fill="#192640"/>
<path d="M11.0334 15.3628L10.2024 14.7999L10.2723 14.6958L11.1033 15.2584L11.0334 15.3628Z" fill="#192640"/>
<path d="M10.7419 15.8181L9.89197 15.2849L9.95829 15.1782L10.8081 15.7114L10.7419 15.8181" fill="#192640"/>
<path d="M10.4645 16.2854L9.59668 15.7825L9.65937 15.6735L10.5271 16.1764L10.4645 16.2854Z" fill="#192640"/>
<path d="M10.2051 16.7607L9.32019 16.2882L9.37914 16.1768L10.2641 16.6494L10.2051 16.7607Z" fill="#192640"/>
<path d="M9.96172 17.2446L9.06104 16.8033L9.11601 16.6904L10.0168 17.1315L9.96172 17.2446" fill="#192640"/>
<path d="M9.73793 17.7375L8.82239 17.328L8.87365 17.2134L9.78896 17.6224L9.73793 17.7375" fill="#192640"/>
<path d="M9.52633 18.2373L8.59717 17.8601L8.6439 17.7438L9.57315 18.1207L9.52633 18.2373Z" fill="#192640"/>
<path d="M9.33612 18.7444L8.39417 18.4001L8.43715 18.282L9.379 18.626L9.33612 18.7444Z" fill="#192640"/>
<path d="M9.16181 19.2571L8.20862 18.9463L8.24728 18.8265L9.20047 19.1376L9.16181 19.2571Z" fill="#192640"/>
<path d="M9.00576 19.7778L8.04224 19.5003L8.07683 19.3793L9.0401 19.6571L9.00576 19.7778Z" fill="#192640"/>
<path d="M8.86969 20.3015L7.89734 20.0581L7.92761 19.9359L8.89996 20.1797L8.86969 20.3015Z" fill="#192640"/>
<path d="M8.7487 20.8311L7.76843 20.6217L7.79461 20.4984L8.7748 20.7077L8.7487 20.8311Z" fill="#192640"/>
<path d="M8.64947 21.3635L7.66272 21.1886L7.68437 21.065L8.67135 21.2396L8.64947 21.3635Z" fill="#192640"/>
<path d="M8.56504 21.8994L7.57263 21.7592L7.59008 21.635L8.5826 21.7749L8.56504 21.8994Z" fill="#192640"/>
<path d="M8.5017 22.4385L7.50488 22.3329L7.51803 22.2082L8.51476 22.3134L8.5017 22.4385" fill="#192640"/>
<path d="M8.45647 22.9783L7.45667 22.908L7.46529 22.7824L8.46506 22.8526L8.45647 22.9783Z" fill="#192640"/>
<path d="M8.43251 23.5208L7.43079 23.4855L7.43534 23.3598L8.43683 23.3951L8.43251 23.5208Z" fill="#192640"/>
<path d="M8.42403 24.0627H7.42188V23.9368H8.42403V24.0627Z" fill="#192640"/>
<path d="M7.43534 24.6404L7.43079 24.5147L8.43251 24.4798L8.43683 24.6054L7.43534 24.6404" fill="#192640"/>
<path d="M7.46529 25.2163L7.45667 25.0907L8.45647 25.0204L8.46506 25.1461L7.46529 25.2163" fill="#192640"/>
<path d="M7.51803 25.7913L7.50488 25.6665L8.5017 25.561L8.51476 25.686L7.51803 25.7913" fill="#192640"/>
<path d="M7.59008 26.3643L7.57263 26.2398L8.56504 26.0996L8.5826 26.2243L7.59008 26.3643" fill="#192640"/>
<path d="M7.68437 26.9346L7.66272 26.811L8.64947 26.6361L8.67135 26.76L7.68437 26.9346" fill="#192640"/>
<path d="M7.79461 27.501L7.76843 27.378L8.7487 27.1686L8.7748 27.2917L7.79461 27.501" fill="#192640"/>
<path d="M7.92761 28.0635L7.89734 27.9416L8.86969 27.6979L8.89996 27.8201L7.92761 28.0635" fill="#192640"/>
<path d="M8.07683 28.6204L8.04224 28.4997L9.00576 28.2218L9.0401 28.3428L8.07683 28.6204Z" fill="#192640"/>
<path d="M8.24728 29.1721L8.20862 29.0526L9.16181 28.7415L9.20047 28.8611L8.24728 29.1721" fill="#192640"/>
<path d="M8.43715 29.7173L8.39417 29.5992L9.33612 29.2549L9.379 29.3733L8.43715 29.7173Z" fill="#192640"/>
<path d="M8.6439 30.2556L8.59717 30.1393L9.52633 29.7621L9.57315 29.8787L8.6439 30.2556" fill="#192640"/>
<path d="M8.87365 30.7876L8.82239 30.6727L9.73793 30.2631L9.78896 30.3783L8.87365 30.7876" fill="#192640"/>
<path d="M9.11601 31.3096L9.06104 31.1968L9.96172 30.7554L10.0168 30.8685L9.11601 31.3096" fill="#192640"/>
<path d="M9.37914 31.8232L9.32019 31.7122L10.2051 31.2396L10.2641 31.3507L9.37914 31.8232" fill="#192640"/>
<path d="M9.65937 32.3274L9.59668 32.2183L10.4645 31.7152L10.5271 31.8242L9.65937 32.3274" fill="#192640"/>
<path d="M9.95829 32.8213L9.89197 32.7149L10.7419 32.1814L10.8081 32.2881L9.95829 32.8213" fill="#192640"/>
<path d="M10.2723 33.3037L10.2024 33.1996L11.0334 32.6368L11.1033 32.7408L10.2723 33.3037Z" fill="#192640"/>
<path d="M10.6052 33.7761L10.5315 33.6748L11.3423 33.083L11.416 33.1846L10.6052 33.7761Z" fill="#192640"/>
<path d="M10.9526 34.2354L10.8754 34.1363L11.6651 33.5168L11.7423 33.6157L10.9526 34.2354" fill="#192640"/>
<path d="M11.3179 34.6838L11.2372 34.5873L12.005 33.9407L12.0856 34.0369L11.3179 34.6838" fill="#192640"/>
<path d="M11.6935 35.1182L11.6096 35.0242L12.3545 34.3509L12.4383 34.4445L11.6935 35.1182" fill="#192640"/>
<path d="M12.0896 35.5388L12.0026 35.4484L12.7234 34.7491L12.8104 34.8397L12.0896 35.5388Z" fill="#192640"/>
<path d="M12.4973 35.9448L12.4071 35.8574L13.1033 35.1329L13.1934 35.2203L12.4973 35.9448Z" fill="#192640"/>
<path d="M12.9197 36.3369L12.8264 36.2526L13.4971 35.5048L13.5904 35.5889L12.9197 36.3369Z" fill="#192640"/>
<path d="M13.3535 36.7146L13.2577 36.6339L13.9018 35.8626L13.9977 35.9439L13.3535 36.7146" fill="#192640"/>
<path d="M13.8027 37.0757L13.7041 36.9983L14.321 36.2052L14.4197 36.283L13.8027 37.0757Z" fill="#192640"/>
<path d="M14.2622 37.4221L14.1609 37.348L14.7499 36.5338L14.8513 36.6078L14.2622 37.4221Z" fill="#192640"/>
<path d="M14.7349 37.7517L14.631 37.6815L15.1914 36.8468L15.2952 36.9175L14.7349 37.7517Z" fill="#192640"/>
<path d="M15.2178 38.0652L15.1115 37.9987L15.6425 37.1448L15.7488 37.2113L15.2178 38.0652Z" fill="#192640"/>
<path d="M15.7126 38.3599L15.6041 38.2969L16.1054 37.4253L16.2138 37.4882L15.7126 38.3599Z" fill="#192640"/>
<path d="M16.2183 38.6384L16.1077 38.5793L16.5782 37.6904L16.6889 37.7496L16.2183 38.6384" fill="#192640"/>
<path d="M16.7308 38.8977L16.6182 38.8426L17.0575 37.9379L17.1702 37.9931L16.7308 38.8977" fill="#192640"/>
<path d="M17.252 39.1406L17.1376 39.0894L17.5452 38.1696L17.6596 38.2209L17.252 39.1406Z" fill="#192640"/>
<path d="M17.7815 39.3638L17.6653 39.3168L18.0408 38.3836L18.1569 38.4307L17.7815 39.3638Z" fill="#192640"/>
<path d="M18.3195 39.5693L18.2018 39.5262L18.5445 38.5805L18.6621 38.6233L18.3195 39.5693Z" fill="#192640"/>
<path d="M18.8655 39.7544L18.7465 39.7157L19.0561 38.7583L19.1752 38.7974L18.8655 39.7544Z" fill="#192640"/>
<path d="M19.4145 39.9221L19.2942 39.8875L19.5704 38.9202L19.6907 38.9546L19.4145 39.9221Z" fill="#192640"/>
<path d="M19.9707 40.0693L19.8491 40.0389L20.0917 39.0621L20.2131 39.0927L19.9707 40.0693Z" fill="#192640"/>
<path d="M20.5318 40.197L20.4093 40.1708L20.6177 39.1862L20.7402 39.2125L20.5318 40.197Z" fill="#192640"/>
<path d="M21.0971 40.3044L20.9739 40.2822L21.1479 39.291L21.2712 39.3129L21.0971 40.3044" fill="#192640"/>
<path d="M21.6639 40.3923L21.5399 40.3748L21.6794 39.3782L21.8034 39.3956L21.6639 40.3923Z" fill="#192640"/>
<path d="M22.2362 40.4617L22.1117 40.4486L22.2164 39.4475L22.341 39.4606L22.2362 40.4617Z" fill="#192640"/>
<path d="M22.8091 40.5088L22.684 40.5004L22.7539 39.4961L22.8787 39.5048L22.8091 40.5088Z" fill="#192640"/>
<path d="M23.3994 40.5381L23.2571 40.5334L23.2966 39.5277L23.4389 39.5318L23.3994 40.5381Z" fill="#192640"/>
<path d="M23.9741 40.5452H23.8322V39.5385H23.9741V40.5452Z" fill="#192640"/>
<path d="M24.4121 40.5381L24.3722 39.5318L24.5142 39.5277L24.554 40.5334L24.4121 40.5381Z" fill="#192640"/>
<path d="M24.9823 40.5088L24.9124 39.5048L25.0375 39.4961L25.1074 40.5004L24.9823 40.5088Z" fill="#192640"/>
<path d="M25.5558 40.4617L25.4507 39.4606L25.5755 39.4475L25.68 40.4486L25.5558 40.4617Z" fill="#192640"/>
<path d="M26.1274 40.3923L25.988 39.3956L26.112 39.3782L26.2516 40.3748L26.1274 40.3923Z" fill="#192640"/>
<path d="M26.695 40.3044L26.5211 39.3129L26.6445 39.291L26.8183 40.2822L26.695 40.3044" fill="#192640"/>
<path d="M27.2598 40.197L27.0514 39.2125L27.1742 39.1862L27.3826 40.1708L27.2598 40.197Z" fill="#192640"/>
<path d="M27.8206 40.0693L27.5782 39.0927L27.6999 39.0621L27.9422 40.0389L27.8206 40.0693Z" fill="#192640"/>
<path d="M28.3748 39.9221L28.0985 38.9546L28.219 38.9202L28.495 39.8875L28.3748 39.9221Z" fill="#192640"/>
<path d="M28.9258 39.7544L28.6161 38.7974L28.7354 38.7583L29.0451 39.7157L28.9258 39.7544Z" fill="#192640"/>
<path d="M29.471 39.5693L29.1282 38.6233L29.2457 38.5805L29.5885 39.5262L29.471 39.5693Z" fill="#192640"/>
<path d="M30.0069 39.3638L29.6313 38.4307L29.7474 38.3836L30.123 39.3168L30.0069 39.3638" fill="#192640"/>
<path d="M30.5392 39.1406L30.1313 38.2209L30.2457 38.1696L30.6535 39.0894L30.5392 39.1406Z" fill="#192640"/>
<path d="M31.0618 38.8977L30.6223 37.9931L30.7349 37.9379L31.1744 38.8426L31.0618 38.8977Z" fill="#192640"/>
<path d="M31.5741 38.6384L31.1036 37.7496L31.2145 37.6904L31.685 38.5793L31.5741 38.6384" fill="#192640"/>
<path d="M32.0785 38.3599L31.5775 37.4882L31.6858 37.4253L32.1868 38.2969L32.0785 38.3599Z" fill="#192640"/>
<path d="M32.5725 38.0652L32.0414 37.2113L32.1479 37.1448L32.6788 37.9987L32.5725 38.0652Z" fill="#192640"/>
<path d="M33.0557 37.7517L32.4952 36.9175L32.5991 36.8468L33.1596 37.6815L33.0557 37.7517Z" fill="#192640"/>
<path d="M33.5279 37.4221L32.939 36.6078L33.0403 36.5338L33.6295 37.348L33.5279 37.4221Z" fill="#192640"/>
<path d="M33.9873 37.0757L33.3702 36.283L33.4689 36.2052L34.086 36.9983L33.9873 37.0757Z" fill="#192640"/>
<path d="M34.4363 36.7146L33.7922 35.9439L33.8883 35.8626L34.5324 36.6339L34.4363 36.7146Z" fill="#192640"/>
<path d="M34.8704 36.3369L34.2 35.5889L34.2931 35.5048L34.9639 36.2526L34.8704 36.3369Z" fill="#192640"/>
<path d="M35.2925 35.9448L34.5964 35.2203L34.6864 35.1329L35.3827 35.8574L35.2925 35.9448Z" fill="#192640"/>
<path d="M35.7025 35.5388L34.9818 34.8397L35.0689 34.7491L35.7896 35.4484L35.7025 35.5388Z" fill="#192640"/>
<path d="M36.0959 35.1182L35.3511 34.4445L35.435 34.3509L36.1797 35.0242L36.0959 35.1182" fill="#192640"/>
<path d="M36.4737 34.6838L35.7059 34.0369L35.7866 33.9407L36.5543 34.5873L36.4737 34.6838" fill="#192640"/>
<path d="M36.8385 34.2354L36.0487 33.6157L36.1259 33.5168L36.9157 34.1363L36.8385 34.2354" fill="#192640"/>
<path d="M37.1869 33.7761L36.376 33.1846L36.45 33.083L37.2607 33.6748L37.1869 33.7761Z" fill="#192640"/>
<path d="M37.5167 33.3037L36.6857 32.7408L36.7556 32.6368L37.5866 33.1996L37.5167 33.3037Z" fill="#192640"/>
<path d="M37.8319 32.8213L36.9821 32.2881L37.0482 32.1814L37.8981 32.7149L37.8319 32.8213" fill="#192640"/>
<path d="M38.1293 32.3274L37.2615 31.8242L37.3239 31.7152L38.1917 32.2183L38.1293 32.3274" fill="#192640"/>
<path d="M38.4115 31.8232L37.5269 31.3507L37.5858 31.2396L38.4705 31.7122L38.4115 31.8232" fill="#192640"/>
<path d="M38.6724 31.3096L37.7717 30.8685L37.8269 30.7554L38.7275 31.1968L38.6724 31.3096" fill="#192640"/>
<path d="M38.9183 30.7876L38.0026 30.3783L38.0536 30.2631L38.9691 30.6727L38.9183 30.7876Z" fill="#192640"/>
<path d="M39.1447 30.2556L38.2156 29.8787L38.2623 29.7621L39.1914 30.1393L39.1447 30.2556Z" fill="#192640"/>
<path d="M39.3542 29.7173L38.4126 29.3733L38.4556 29.2549L39.3971 29.5992L39.3542 29.7173Z" fill="#192640"/>
<path d="M39.5434 29.1721L38.5902 28.8611L38.6288 28.7415L39.582 29.0526L39.5434 29.1721Z" fill="#192640"/>
<path d="M39.7118 28.6204L38.7484 28.3428L38.783 28.2218L39.7463 28.4997L39.7118 28.6204Z" fill="#192640"/>
<path d="M39.8636 28.0635L38.8912 27.8201L38.9214 27.6979L39.8938 27.9416L39.8636 28.0635Z" fill="#192640"/>
<path d="M39.9967 27.501L39.0165 27.2917L39.0423 27.1686L40.0228 27.378L39.9967 27.501Z" fill="#192640"/>
<path d="M40.1064 26.9346L39.1195 26.76L39.1413 26.6361L40.1281 26.811L40.1064 26.9346Z" fill="#192640"/>
<path d="M40.2009 26.3643L39.2083 26.2243L39.226 26.0996L40.2183 26.2398L40.2009 26.3643Z" fill="#192640"/>
<path d="M40.2733 25.7913L39.2766 25.686L39.2897 25.561L40.2864 25.6665L40.2733 25.7913Z" fill="#192640"/>
<path d="M40.3237 25.2163L39.3241 25.1461L39.3325 25.0204L40.3324 25.0907L40.3237 25.2163Z" fill="#192640"/>
<path d="M40.3558 24.6404L39.3541 24.6054L39.3588 24.4798L40.3601 24.5147L40.3558 24.6404Z" fill="#192640"/>
<path d="M40.3695 24.0627H39.3676V23.9368H40.3695V24.0627Z" fill="#192640"/>
<path d="M39.3588 23.5208L39.3541 23.3951L40.3558 23.3598L40.3601 23.4855L39.3588 23.5208Z" fill="#192640"/>
<path d="M39.3325 22.9783L39.3241 22.8526L40.3237 22.7824L40.3324 22.908L39.3325 22.9783Z" fill="#192640"/>
<path d="M39.2897 22.4385L39.2766 22.3134L40.2733 22.2082L40.2864 22.3329L39.2897 22.4385Z" fill="#192640"/>
<path d="M39.226 21.8994L39.2083 21.7749L40.2009 21.635L40.2183 21.7592L39.226 21.8994Z" fill="#192640"/>
<path d="M39.1413 21.3635L39.1195 21.2396L40.1064 21.065L40.1281 21.1886L39.1413 21.3635Z" fill="#192640"/>
<path d="M39.0423 20.8311L39.0165 20.7077L39.9967 20.4984L40.0228 20.6217L39.0423 20.8311Z" fill="#192640"/>
<path d="M38.9214 20.3015L38.8912 20.1797L39.8636 19.9359L39.8938 20.0581L38.9214 20.3015Z" fill="#192640"/>
<path d="M38.783 19.7778L38.7484 19.6571L39.7118 19.3793L39.7463 19.5003L38.783 19.7778Z" fill="#192640"/>
<path d="M38.6288 19.2571L38.5902 19.1376L39.5434 18.8265L39.582 18.9463L38.6288 19.2571Z" fill="#192640"/>
<path d="M38.4556 18.7444L38.4126 18.626L39.3542 18.282L39.3971 18.4001L38.4556 18.7444Z" fill="#192640"/>
<path d="M38.2623 18.2373L38.2156 18.1207L39.1447 17.7438L39.1914 17.8601L38.2623 18.2373Z" fill="#192640"/>
<path d="M38.0536 17.7375L38.0026 17.6224L38.9183 17.2134L38.9691 17.328L38.0536 17.7375Z" fill="#192640"/>
<path d="M37.8269 17.2446L37.7717 17.1315L38.6724 16.6904L38.7275 16.8033L37.8269 17.2446" fill="#192640"/>
<path d="M37.5858 16.7607L37.5269 16.6494L38.4115 16.1768L38.4705 16.2882L37.5858 16.7607Z" fill="#192640"/>
<path d="M37.3239 16.2854L37.2615 16.1764L38.1293 15.6735L38.1917 15.7825L37.3239 16.2854Z" fill="#192640"/>
<path d="M37.0482 15.8181L36.9821 15.7114L37.8319 15.1782L37.8981 15.2849L37.0482 15.8181Z" fill="#192640"/>
<path d="M36.7556 15.3628L36.6857 15.2584L37.5167 14.6958L37.5866 14.7999L36.7556 15.3628Z" fill="#192640"/>
<path d="M36.45 14.917L36.376 14.8153L37.1869 14.2238L37.2607 14.3252L36.45 14.917Z" fill="#192640"/>
<path d="M36.1259 14.4827L36.0487 14.3835L36.8385 13.7635L36.9157 13.8626L36.1259 14.4827Z" fill="#192640"/>
<path d="M35.7866 14.0596L35.7059 13.9634L36.4737 13.3168L36.5543 13.413L35.7866 14.0596Z" fill="#192640"/>
<path d="M35.435 13.6494L35.3511 13.5558L36.0959 12.8821L36.1797 12.976L35.435 13.6494Z" fill="#192640"/>
<path d="M35.0689 13.251L34.9818 13.1606L35.7025 12.4612L35.7896 12.5516L35.0689 13.251Z" fill="#192640"/>
<path d="M34.6864 12.8655L34.5964 12.7783L35.2925 12.0539L35.3827 12.1413L34.6864 12.8655Z" fill="#192640"/>
<path d="M34.2931 12.4949L34.2 12.4106L34.8704 11.6629L34.9639 11.7468L34.2931 12.4949Z" fill="#192640"/>
<path d="M33.8883 12.1377L33.7922 12.0567L34.4363 11.2856L34.5324 11.3666L33.8883 12.1377Z" fill="#192640"/>
<path d="M33.4689 11.7937L33.3702 11.7162L33.9873 10.9232L34.086 11.0005L33.4689 11.7937Z" fill="#192640"/>
<path d="M33.0403 11.4653L32.939 11.3913L33.5279 10.5771L33.6295 10.6511L33.0403 11.4653Z" fill="#192640"/>
<path d="M32.5991 11.1533L32.4952 11.0828L33.0557 10.2484L33.1596 10.3187L32.5991 11.1533" fill="#192640"/>
<path d="M32.1479 10.855L32.0414 10.7882L32.5725 9.93493L32.6788 10.0014L32.1479 10.855Z" fill="#192640"/>
<path d="M31.6858 10.5735L31.5775 10.5105L32.0785 9.63886L32.1868 9.70183L31.6858 10.5735Z" fill="#192640"/>
<path d="M31.2145 10.3096L31.1036 10.2504L31.5741 9.36183L31.685 9.42101L31.2145 10.3096Z" fill="#192640"/>
<path d="M30.7349 10.061L30.6223 10.0059L31.0618 9.10134L31.1744 9.15644L30.7349 10.061Z" fill="#192640"/>
<path d="M30.2457 9.82959L30.1313 9.77828L30.5392 8.85882L30.6535 8.90983L30.2457 9.82959Z" fill="#192640"/>
<path d="M29.7474 9.61621L29.6313 9.56928L30.0069 8.63611L30.123 8.68304L29.7474 9.61621Z" fill="#192640"/>
<path d="M29.2457 9.41919L29.1282 9.37604L29.471 8.43034L29.5885 8.4732L29.2457 9.41919Z" fill="#192640"/>
<path d="M28.7354 9.24121L28.6161 9.20215L28.9258 8.24508L29.0451 8.28385L28.7354 9.24121Z" fill="#192640"/>
<path d="M28.219 9.07983L28.0985 9.04514L28.3748 8.07758L28.495 8.11227L28.219 9.07983Z" fill="#192640"/>
<path d="M27.6999 8.93848L27.5782 8.90816L27.8206 7.93126L27.9422 7.96158L27.6999 8.93848Z" fill="#192640"/>
<path d="M27.1742 8.81396L27.0514 8.78802L27.2598 7.80325L27.3826 7.82949L27.1742 8.81396Z" fill="#192640"/>
<path d="M26.6445 8.7085L26.5211 8.68663L26.695 7.69516L26.8183 7.71732L26.6445 8.7085Z" fill="#192640"/>
<path d="M26.112 8.62158L25.988 8.60409L26.1274 7.60708L26.2516 7.62487L26.112 8.62158Z" fill="#192640"/>
<path d="M25.5755 8.55225L25.4507 8.53913L25.5558 7.53803L25.68 7.55115L25.5755 8.55225Z" fill="#192640"/>
<path d="M25.0375 8.50342L24.9124 8.49467L24.9823 7.49066L25.1074 7.49941L25.0375 8.50342Z" fill="#192640"/>
<path d="M24.5142 8.47266L24.3722 8.46857L24.4121 7.46223L24.554 7.4669L24.5142 8.47266Z" fill="#192640"/>
<path d="M65.3153 28.8469C62.1115 28.8469 60.6373 27.7415 60.6373 27.7415V23.9511H60.8733C61.0895 26.3596 61.9739 28.5904 65.3153 28.5904C68.3032 28.5904 68.6962 25.2542 66.3965 23.6155L63.1335 21.5032C61.2663 20.2595 59.4777 18.4629 60.9911 16.1336C60.9911 16.1336 61.9542 14.5935 64.6863 14.5935C67.5363 14.5935 69.1876 15.5214 69.1876 15.5214V18.838H68.9124C68.7354 16.9032 67.9688 14.85 64.6863 14.85C62.5637 14.85 60.9519 17.5941 63.9198 19.529L67.1631 21.6807C69.7968 23.4182 70.2293 25.6096 69.207 27.2281C69.207 27.2281 68.3621 28.8469 65.3153 28.8469" fill="white"/>
<path d="M85.2256 28.6687H81.9234V28.4317C82.6702 28.2145 82.7097 27.8396 82.7097 26.8327V22.5881C82.7097 21.1666 82.1788 20.3574 80.9209 20.3574C79.9381 20.3574 79.1126 21.3643 79.1126 22.0948C79.1126 22.2327 79.1126 22.3907 79.1126 22.5686V26.8327C79.1126 27.9183 79.2107 28.2542 79.9183 28.4317V28.6687H76.6164V28.4317C77.3632 28.2145 77.4024 27.8396 77.4024 26.8327V22.5881C77.4024 21.1666 76.8718 20.3574 75.6139 20.3574C74.6311 20.3574 73.904 21.3838 73.7664 22.0552V26.8522C73.7664 27.9381 73.8648 28.234 74.5722 28.4122V28.6687H71.2702V28.4122C72.0171 28.195 72.0368 27.8591 72.0368 26.8522V21.4235C72.0368 20.7326 71.8795 20.397 71.0537 20.1795V19.9428L73.7664 19.3703V21.4036C74.1986 20.2784 75.2995 19.3703 76.5378 19.3703C77.9136 19.3703 78.7983 20.002 79.0537 21.4826C79.4075 20.318 80.5868 19.3703 81.8448 19.3703C83.4565 19.3703 84.4196 20.1402 84.4196 22.5289V26.8327C84.4196 27.9183 84.5375 28.2542 85.2256 28.4317V28.6687" fill="white"/>
<path d="M90.8491 19.9622C89.5322 19.9622 88.7064 20.9099 88.5886 22.2722V25.9836C88.7064 27.7406 89.7481 28.5895 90.9866 28.5895C92.2838 28.5895 93.5809 27.6418 93.5809 24.4636C93.5809 21.3443 92.5392 19.9622 90.8491 19.9622ZM91.0456 28.8461C90.043 28.8461 89.2175 28.5697 88.5886 28.096V32.1432C88.5886 33.2487 88.7064 33.4658 89.3943 33.6434V33.8999H86.0924V33.6434C86.8392 33.4262 86.8784 33.1498 86.8784 32.1432V21.2256C86.8784 20.5549 86.7016 20.3374 85.8959 20.1794V19.9427L88.5886 19.3701V20.9099C89.1978 19.8637 90.5147 19.3701 91.5172 19.3701C94.1315 19.3701 95.6449 21.4629 95.6449 24.1872C95.6449 27.2669 93.6596 28.8461 91.0456 28.8461" fill="white"/>
<path d="M100.541 28.6687H97.2384V28.4122C97.9852 28.195 98.0247 27.8591 98.0247 26.8522V16.0142C98.0247 15.3233 97.8479 15.047 97.0419 14.889V14.6324L99.7543 14.0992V26.8522C99.7543 27.9381 99.8527 28.234 100.541 28.4122V28.6687" fill="white"/>
<path d="M111.607 24.5626V28.6687H101.72V28.4122C102.545 28.4122 102.781 27.7011 102.781 26.359V16.883C102.781 15.6589 102.585 15.0271 101.72 15.0271V14.7706H111.351V18.324H111.096C110.86 15.0665 107.459 15.0271 105.867 15.0271H104.806V21.5223H106.084C106.614 21.5223 108.698 21.5223 108.796 19.5283H109.051V23.7729H108.796C108.698 21.7984 106.575 21.7788 106.084 21.7788H104.806V28.4122H105.71C107.459 28.4122 110.938 28.5107 111.351 24.5626H111.607Z" fill="white"/>
<path d="M121.632 26.2413C121.415 27.2281 120.413 28.8469 117.995 28.8469C115.794 28.8469 113.71 27.0307 113.71 24.1286C113.71 21.7005 115.479 19.371 118.487 19.371C120.413 19.371 121.003 20.2595 121.179 20.5752C121.337 20.8516 121.376 21.2265 121.199 21.5425C120.944 21.9571 120.354 22.1349 119.941 21.8783C119.489 21.6215 119.351 21.049 119.607 20.6344C119.745 20.3977 119.961 20.2397 120.157 20.2199C120.334 20.1802 119.804 19.6278 118.487 19.6278C117.7 19.6278 115.538 20.2199 115.538 23.9114C115.538 26.5372 117.012 27.6231 118.408 27.761C119.843 27.8796 121.061 26.9517 121.415 26.1425L121.632 26.2413" fill="white"/>
<path d="M127.609 19.6278C126.095 19.6278 125.073 20.5356 125.073 24.1091C125.073 27.6823 126.095 28.5904 127.609 28.5904C129.102 28.5904 130.105 27.6823 130.105 24.1091C130.105 20.5356 129.102 19.6278 127.609 19.6278ZM127.609 28.8469C124.621 28.8469 123.068 26.6952 123.068 24.1091C123.068 21.5032 124.621 19.371 127.609 19.371C130.616 19.371 132.129 21.5032 132.129 24.1091C132.129 26.6952 130.616 28.8469 127.609 28.8469Z" fill="white"/>
<path d="M137.32 28.8469C134.941 28.8469 133.88 28.0572 133.88 28.0572V25.3725H134.136C134.273 26.6754 134.765 28.5904 137.32 28.5904C139.403 28.5904 139.148 26.4975 137.654 25.5107L135.669 24.3064C133.782 23.043 133.349 21.8582 134.136 20.4962C134.136 20.4962 134.725 19.371 136.73 19.371C138.991 19.371 139.934 20.0027 139.934 20.0027V22.4113H139.698C139.56 21.2466 139.01 19.6278 136.73 19.6278C134.863 19.6278 134.725 21.4833 136.435 22.5693L138.421 23.8126C140.189 24.9184 140.759 26.5176 139.816 27.8796C139.816 27.8796 139.148 28.8469 137.32 28.8469" fill="white"/>
<path d="M151.217 19.5481V19.7851C150.529 19.7851 149.861 19.9626 148.701 22.9438L145.655 31.2944C145.262 32.4396 144.731 32.8937 144.456 33.1304C144.181 33.3474 143.65 33.4462 143.276 33.2687C142.746 33.0316 142.529 32.4197 142.746 31.8868C143.001 31.3539 143.611 31.1169 144.121 31.3539C144.397 31.4723 144.574 31.7288 144.653 31.9857C144.731 32.262 145.144 31.9857 145.419 31.2551L146.303 28.7477C143.964 23.556 142.628 20.792 142.628 20.792C142.234 19.8839 141.547 19.8049 141.252 19.7851V19.5481H145.32V19.7851C144.043 19.7851 144.731 21.2261 144.731 21.2261L147.168 26.4776L148.465 22.8846C148.465 22.8846 149.704 19.7656 147.424 19.7851V19.5481H151.217" fill="white"/>
<path d="M155.973 28.8469C153.595 28.8469 152.533 28.0572 152.533 28.0572V25.3725H152.789C152.926 26.6754 153.418 28.5904 155.973 28.5904C158.056 28.5904 157.801 26.4975 156.307 25.5107L154.322 24.3064C152.435 23.043 152.003 21.8582 152.789 20.4962C152.789 20.4962 153.378 19.371 155.383 19.371C157.644 19.371 158.587 20.0027 158.587 20.0027V22.4113H158.351C158.214 21.2466 157.663 19.6278 155.383 19.6278C153.516 19.6278 153.378 21.4833 155.088 22.5693L157.074 23.8126C158.843 24.9184 159.413 26.5176 158.469 27.8796C158.469 27.8796 157.801 28.8469 155.973 28.8469" fill="white"/>
<path d="M165.763 27.1494C165.488 28.0178 164.603 28.8469 163.463 28.8469C162.028 28.8469 161.163 28.2152 161.163 25.8267V19.8053H160.161L160.122 19.5485H161.163V16.7452L162.873 16.4691V19.5485H165.212L165.153 19.8053H162.873V25.7673C162.873 27.3467 163.444 27.8796 164.367 27.8796C164.937 27.8796 165.409 27.4651 165.566 27.0506L165.763 27.1494" fill="white"/>
<path d="M173.153 23.6747C173.153 20.7924 171.875 19.6278 170.932 19.6278C169.812 19.6278 168.554 21.1874 168.554 23.6747H173.153ZM174.529 26.3395C174.313 27.2677 173.231 28.8469 170.912 28.8469C168.455 28.8469 166.706 26.7937 166.706 24.1881C166.706 21.2661 168.554 19.371 170.991 19.371C173.271 19.371 174.843 20.8321 174.843 23.9313H168.554C168.632 26.5964 169.812 27.6625 171.364 27.8205C172.543 27.9388 173.939 27.2086 174.293 26.2413L174.529 26.3395Z" fill="white"/>
<path d="M190 28.6687H186.698V28.4317C187.445 28.2145 187.484 27.8396 187.484 26.8327V22.5881C187.484 21.1666 186.954 20.3574 185.696 20.3574C184.712 20.3574 183.887 21.3643 183.887 22.0948C183.887 22.2327 183.887 22.3907 183.887 22.5686V26.8327C183.887 27.9183 183.985 28.2542 184.693 28.4317V28.6687H181.391V28.4317C182.138 28.2145 182.177 27.8396 182.177 26.8327V22.5881C182.177 21.1666 181.647 20.3574 180.389 20.3574C179.406 20.3574 178.678 21.3838 178.541 22.0552V26.8522C178.541 27.9381 178.639 28.234 179.347 28.4122V28.6687H176.045V28.4122C176.791 28.195 176.811 27.8591 176.811 26.8522V21.4235C176.811 20.7326 176.654 20.397 175.828 20.1795V19.9428L178.541 19.3703V21.4036C178.973 20.2784 180.074 19.3703 181.312 19.3703C182.688 19.3703 183.573 20.002 183.828 21.4826C184.182 20.318 185.361 19.3703 186.619 19.3703C188.231 19.3703 189.194 20.1402 189.194 22.5289V26.8327C189.194 27.9183 189.312 28.2542 190 28.4317V28.6687" fill="white"/>
<defs>
<linearGradient id="paint0_linear_459_1873" x1="53.2349" y1="23.9993" x2="54.1184" y2="23.9993" gradientUnits="userSpaceOnUse">
<stop stop-color="#E1D97B"/>
<stop offset="0.0131285" stop-color="#E1D97B"/>
<stop offset="0.453911" stop-color="#BE9C59"/>
<stop offset="1" stop-color="#8C7342"/>
</linearGradient>
<radialGradient id="paint1_radial_459_1873" cx="0" cy="0" r="1" gradientUnits="userSpaceOnUse" gradientTransform="translate(23.1914 22.8543) rotate(26.307) scale(40.7661 40.8746)">
<stop stop-color="#E1D97B"/>
<stop offset="0.0131285" stop-color="#E1D97B"/>
<stop offset="0.453911" stop-color="#BE9C59"/>
<stop offset="1" stop-color="#8C7342"/>
</radialGradient>
<radialGradient id="paint2_radial_459_1873" cx="0" cy="0" r="1" gradientUnits="userSpaceOnUse" gradientTransform="translate(21.4857 16.9588) rotate(33.2822) scale(63.4197 63.5304)">
<stop stop-color="#E1D97B"/>
<stop offset="0.0131285" stop-color="#E1D97B"/>
<stop offset="0.453911" stop-color="#BE9C59"/>
<stop offset="1" stop-color="#8C7342"/>
</radialGradient>
</defs>
</svg>
